<?xml version="1.0" encoding="UTF-8"?>
<svg width="15px" height="31px" viewBox="-153 676 15 31" version="1.1" xmlns="http://www.w3.org/2000/svg" xmlns:xlink="http://www.w3.org/1999/xlink">
    <defs></defs>
    <g id="uniE903" stroke="none" stroke-width="1" fill="none" fill-rule="evenodd" transform="translate(-153.000000, 676.000000)">
        <path d="M13.5,15.625 L10.094,15.625 L10.094,30.688 L3.313,30.688 L3.313,15.625 L0.563,15.625 L0.563,10.125 L3.313,10.125 L3.313,6.875 C3.313,6.24966667 3.40666667,5.57266667 3.594,4.844 C3.78133333,4.11533333 4.11466667,3.433 4.594,2.797 C5.07333333,2.161 5.71933333,1.62966667 6.532,1.203 C7.34466667,0.776333333 8.38633333,0.562666667 9.657,0.562 L14.157,0.562 L14.157,6 L11.751,6 C11.2923333,6.06266667 10.907,6.271 10.595,6.625 C10.283,6.979 10.1163333,7.39566667 10.095,7.875 L10.095,10.125 L14.251,10.125 L13.5,15.625 Z" id="Shape" fill="#FFFFFF"></path>
    </g>
</svg>
