<?xml version="1.0" encoding="UTF-8"?>
<!-- Generator: Adobe Illustrator 22.0.1, SVG Export Plug-In . SVG Version: 6.00 Build 0)  -->
<svg version="1.1" id="Layer_1" xmlns="http://www.w3.org/2000/svg" xmlns:xlink="http://www.w3.org/1999/xlink" x="0px" y="0px" viewBox="0 0 24.8 24.7" style="enable-background:new 0 0 24.8 24.7;" xml:space="preserve">
<style type="text/css">
	.st0{fill:#FFFFFF;}
</style>
<g>
	<path class="st0" d="M12.4,2.2c3.3,0,3.7,0,5,0.1c1.2,0.1,1.9,0.3,2.3,0.4c0.6,0.2,1,0.5,1.4,0.9S21.8,4.4,22,5   c0.2,0.4,0.4,1.1,0.4,2.3c0.1,1.3,0.1,1.7,0.1,5s0,3.7-0.1,5c-0.1,1.2-0.3,1.9-0.4,2.3c-0.2,0.6-0.5,1-0.9,1.4s-0.8,0.7-1.4,0.9   c-0.4,0.2-1.1,0.4-2.3,0.4c-1.3,0.1-1.7,0.1-5,0.1s-3.7,0-5-0.1c-1.2-0.1-1.9-0.3-2.3-0.4c-0.6-0.2-1-0.5-1.4-0.9S3,20.2,2.8,19.6   c-0.2-0.4-0.4-1.1-0.4-2.3c-0.1-1.3-0.1-1.7-0.1-5s0-3.7,0.1-5C2.5,6.1,2.7,5.4,2.8,5C3,4.4,3.3,4,3.7,3.6s0.8-0.7,1.4-0.9   c0.4-0.2,1.1-0.4,2.3-0.4C8.7,2.2,9.1,2.2,12.4,2.2 M12.4,0C9.1,0,8.6,0,7.3,0.1s-2.2,0.3-3,0.6C3.5,0.9,2.8,1.4,2.1,2   C1.5,2.7,1,3.4,0.7,4.2s-0.5,1.7-0.6,3C0,8.5,0,8.9,0,12.3c0,3.3,0,3.8,0.1,5.1c0.1,1.3,0.3,2.2,0.6,3s0.7,1.5,1.4,2.2   s1.4,1.1,2.2,1.4s1.7,0.5,3,0.6s1.7,0.1,5.1,0.1s3.8,0,5.1-0.1c1.3-0.1,2.2-0.3,3-0.6c0.8-0.3,1.5-0.7,2.2-1.4   c0.7-0.7,1.1-1.4,1.4-2.2c0.3-0.8,0.5-1.7,0.6-3s0.1-1.7,0.1-5.1s0-3.8-0.1-5.1s-0.3-2.2-0.6-3c-0.3-0.8-0.7-1.5-1.4-2.2   c-0.7-0.7-1.4-1.1-2.2-1.4c-0.8-0.3-1.7-0.5-3-0.6C16.2,0,15.7,0,12.4,0L12.4,0z"/>
	<path class="st0" d="M12.4,6c-3.5,0-6.3,2.8-6.3,6.3s2.8,6.3,6.3,6.3s6.3-2.8,6.3-6.3S15.9,6,12.4,6z M12.4,16.4   c-2.3,0-4.1-1.8-4.1-4.1s1.8-4.1,4.1-4.1s4.1,1.8,4.1,4.1S14.7,16.4,12.4,16.4z"/>
	<circle class="st0" cx="19" cy="5.7" r="1.5"/>
</g>
</svg>