<?xml version="1.0" encoding="UTF-8"?>
<svg width="31px" height="25px" viewBox="37 676 31 25" version="1.1" xmlns="http://www.w3.org/2000/svg" xmlns:xlink="http://www.w3.org/1999/xlink">
    <g id="uniE908" stroke="none" stroke-width="1" fill="none" fill-rule="evenodd" transform="translate(37.000000, 676.000000)">
        <path d="M30.375,3.594 C30.083,4.05266667 29.7653333,4.47466667 29.422,4.86 C29.0786667,5.24533333 28.709,5.59433333 28.313,5.907 C28.1463333,6.053 27.9796667,6.18833333 27.813,6.313 C27.6463333,6.43766667 27.49,6.56266667 27.344,6.688 L27.344,7.407 C27.344,7.949 27.318,8.49066667 27.266,9.032 C27.214,9.57333333 27.136,10.1046667 27.032,10.626 C26.6566667,12.2926667 26.115,13.8186667 25.407,15.204 C24.699,16.5893333 23.8396667,17.834 22.829,18.938 C21.8183333,20.042 20.657,21.0003333 19.345,21.813 C18.033,22.6256667 16.5643333,23.2716667 14.939,23.751 C14.3556667,23.9176667 13.6993333,24.0636667 12.97,24.189 C12.2406667,24.3143333 11.4853333,24.3976667 10.704,24.439 C9.92266667,24.4803333 9.14666667,24.475 8.376,24.423 C7.60533333,24.371 6.88666667,24.2616667 6.22,24.095 C5.51133333,23.9283333 4.85,23.746 4.236,23.548 C3.622,23.35 3.023,23.126 2.439,22.876 C2.16833333,22.772 1.89233333,22.647 1.611,22.501 C1.32966667,22.355 1.04333333,22.1986667 0.752,22.032 L0.283,21.751 C0.491666667,21.7716667 0.715666667,21.7926667 0.955,21.814 C1.19433333,21.8353333 1.42866667,21.8456667 1.658,21.845 L1.971,21.845 C1.971,21.845 2.07533333,21.8346667 2.284,21.814 C2.576,21.772 2.86766667,21.746 3.159,21.736 C3.45033333,21.726 3.742,21.6896667 4.034,21.627 C4.72133333,21.5016667 5.37766667,21.3296667 6.003,21.111 C6.62833333,20.8923333 7.23266667,20.6266667 7.816,20.314 C8.02466667,20.1886667 8.29566667,20.0376667 8.629,19.861 C8.96233333,19.6843333 9.22266667,19.4916667 9.41,19.283 C9.07666667,19.283 8.75366667,19.2516667 8.441,19.189 C8.12833333,19.1263333 7.82633333,19.043 7.535,18.939 C6.55566667,18.6056667 5.75866667,18.1213333 5.144,17.486 C4.52933333,16.8506667 4.03466667,16.0643333 3.66,15.127 C3.952,15.169 4.43133333,15.2003333 5.098,15.221 C5.76466667,15.2416667 6.20233333,15.1686667 6.411,15.002 C6.03566667,14.96 5.67633333,14.8713333 5.333,14.736 C4.98966667,14.6006667 4.672,14.4286667 4.38,14.22 C3.50466667,13.72 2.80166667,13.0323333 2.271,12.157 C1.74033333,11.2816667 1.47466667,10.313 1.474,9.251 L1.474,9.095 L2.13,9.408 C2.29666667,9.47066667 2.48933333,9.53333333 2.708,9.596 C2.92666667,9.65866667 3.15066667,9.71066667 3.38,9.752 L3.693,9.815 C3.693,9.815 3.79733333,9.82533333 4.006,9.846 C4.048,9.846 4.08966667,9.84066667 4.131,9.83 C4.17233333,9.81933333 4.214,9.814 4.256,9.814 L4.225,9.814 C4.079,9.64733333 3.89133333,9.491 3.662,9.345 C3.43266667,9.199 3.245,9.03233333 3.099,8.845 C2.57833333,8.241 2.14066667,7.47 1.786,6.532 C1.43133333,5.594 1.41033333,4.56266667 1.723,3.438 C1.80633333,3.146 1.90533333,2.86466667 2.02,2.594 C2.13466667,2.32333333 2.25433333,2.07333333 2.379,1.844 L2.41,1.875 C2.49333333,1.979 2.582,2.08333333 2.676,2.188 C2.77,2.29266667 2.85866667,2.397 2.942,2.501 C3.234,2.81366667 3.531,3.11066667 3.833,3.392 C4.135,3.67333333 4.44233333,3.939 4.755,4.189 C5.83833333,5.02233333 7.005,5.741 8.255,6.345 C9.505,6.949 10.828,7.40733333 12.224,7.72 C12.7033333,7.824 13.1826667,7.90733333 13.662,7.97 C14.1413333,8.03266667 14.6206667,8.07433333 15.1,8.095 C15.058,7.88633333 15.0216667,7.66766667 14.991,7.439 C14.9603333,7.21033333 14.9446667,6.981 14.944,6.751 C14.944,6.48033333 14.965,6.22 15.007,5.97 C15.049,5.72 15.101,5.48033333 15.163,5.251 C15.3923333,4.355 15.8143333,3.558 16.429,2.86 C17.0436667,2.162 17.7676667,1.636 18.601,1.282 C18.8303333,1.19866667 19.0543333,1.12066667 19.273,1.048 C19.4916667,0.975333333 19.726,0.918 19.976,0.876 L20.757,0.782 C21.9656667,0.761333333 22.9343333,0.933333333 23.663,1.298 C24.3916667,1.66266667 25.0583333,2.11566667 25.663,2.657 C26.2463333,2.57366667 26.809,2.43833333 27.351,2.251 C27.893,2.06366667 28.4033333,1.845 28.882,1.595 L29.57,1.22 C29.3826667,1.78266667 29.117,2.30366667 28.773,2.783 C28.429,3.26233333 28.0383333,3.66866667 27.601,4.002 C27.497,4.106 27.3876667,4.19466667 27.273,4.268 C27.1583333,4.34133333 27.0386667,4.409 26.914,4.471 L26.914,4.502 C27.5806667,4.502 28.1953333,4.38733333 28.758,4.158 C29.3206667,3.92866667 29.8623333,3.73066667 30.383,3.564 L30.383,3.564 L30.383,3.595 L30.375,3.594 Z" id="Shape" fill="#FFFFFF"></path>
    </g>
</svg>
