<svg viewBox="0 0 24 24" fill="none" xmlns="http://www.w3.org/2000/svg"><g clip-path="url(#clip0)" transform="translate(-.826 -.826) scale(.95973)"><path d="M13.365 25.869c6.905 0 12.503-5.599 12.503-12.504C25.868 6.459 20.27.86 13.365.86 6.459.861.86 6.46.86 13.365c0 6.905 5.598 12.504 12.504 12.504z" fill="#e5e5e4"/><path d="M13.364 25.62c6.768 0 12.255-5.487 12.255-12.256 0-6.768-5.487-12.255-12.255-12.255-6.769 0-12.256 5.487-12.256 12.255 0 6.769 5.487 12.255 12.256 12.255z" fill="#fff"/><path d="M13.366 24.64c6.226 0 11.274-5.048 11.274-11.274 0-6.226-5.048-11.274-11.274-11.274-6.227 0-11.274 5.048-11.274 11.274 0 6.226 5.047 11.274 11.274 11.274z" fill="#4a8cff"/><path d="M19.983 9.572l-3.188 2.33v2.93l3.188 2.33c.227.176.491.227.491-.243V9.815c0-.418-.212-.47-.49-.243zm-4.071 7.715a.4.4 0 00.398-.393v-5.296a2.17 2.17 0 00-2.18-2.16H6.404a.405.405 0 00-.398.398v5.29a2.17 2.17 0 002.18 2.16h7.725z" fill="#fff"/></g><defs id="defs103"><clipPath id="clip0"><path fill="#fff" transform="translate(.861 .861)" d="M0 0h25.007v25.007H0z" id="path100"/></clipPath></defs></svg>
